<svg width="1280" height="760" viewBox="0 0 1280 760" xmlns="http://www.w3.org/2000/svg">
  <rect width="1280" height="760" fill="#f8fafc"/>
  <text x="70" y="82" font-family="Inter,Arial" font-size="38" font-weight="800" fill="#0f172a">Rent Ledger</text>
  <rect x="70" y="120" width="1110" height="110" rx="24" fill="#fff" stroke="#e2e8f0"/>
  <text x="102" y="162" font-family="Inter,Arial" font-size="17" font-weight="700" fill="#334155">Month</text>
  <rect x="102" y="176" width="190" height="40" rx="12" fill="#fff" stroke="#cbd5e1"/><text x="126" y="202" font-family="Inter,Arial" font-size="15" fill="#475569">2026-05</text>
  <rect x="318" y="176" width="248" height="40" rx="12" fill="#1d4ed8"/><text x="442" y="202" text-anchor="middle" font-family="Inter,Arial" font-size="15" font-weight="700" fill="#fff">Generate monthly rent charges</text>
  <rect x="70" y="260" width="1110" height="390" rx="24" fill="#fff" stroke="#e2e8f0"/>
  <text x="102" y="308" font-family="Inter,Arial" font-size="18" font-weight="700" fill="#0f172a">Create Rent Charge</text>
  <rect x="102" y="334" width="210" height="42" rx="12" fill="#fff" stroke="#cbd5e1"/><text x="124" y="361" font-family="Inter,Arial" font-size="14" fill="#64748b">Lease</text>
  <rect x="330" y="334" width="170" height="42" rx="12" fill="#fff" stroke="#cbd5e1"/><text x="352" y="361" font-family="Inter,Arial" font-size="14" fill="#64748b">Due Date</text>
  <rect x="518" y="334" width="210" height="42" rx="12" fill="#fff" stroke="#cbd5e1"/><text x="540" y="361" font-family="Inter,Arial" font-size="14" fill="#64748b">Description</text>
  <rect x="746" y="334" width="150" height="42" rx="12" fill="#fff" stroke="#cbd5e1"/><text x="768" y="361" font-family="Inter,Arial" font-size="14" fill="#64748b">Amount</text>
  <rect x="914" y="334" width="150" height="42" rx="12" fill="#fff" stroke="#cbd5e1"/><text x="936" y="361" font-family="Inter,Arial" font-size="14" fill="#64748b">Status</text>
  <rect x="102" y="415" width="1046" height="1" fill="#e2e8f0"/>
  <text x="102" y="452" font-family="Inter,Arial" font-size="15" font-weight="700" fill="#334155">Property</text><text x="320" y="452" font-family="Inter,Arial" font-size="15" font-weight="700" fill="#334155">Tenant</text><text x="520" y="452" font-family="Inter,Arial" font-size="15" font-weight="700" fill="#334155">Due Date</text><text x="700" y="452" font-family="Inter,Arial" font-size="15" font-weight="700" fill="#334155">Amount</text><text x="850" y="452" font-family="Inter,Arial" font-size="15" font-weight="700" fill="#334155">Status</text>
  <g font-family="Inter,Arial" font-size="15" fill="#334155"><text x="102" y="500">Orlando Rental</text><text x="320" y="500">Jane Smith</text><text x="520" y="500">2026-05-01</text><text x="700" y="500">$2,000.00</text><text x="850" y="500">Open</text><text x="102" y="548">Winter Park</text><text x="320" y="548">John Doe</text><text x="520" y="548">2026-05-01</text><text x="700" y="548">$2,350.00</text><text x="850" y="548">Paid</text></g>
</svg>
