<svg width="1200" height="760" viewBox="0 0 1200 760" xmlns="http://www.w3.org/2000/svg">
  <rect width="1200" height="760" fill="#f8fafc"/>
  <rect x="60" y="46" width="1080" height="84" rx="24" fill="#fff" stroke="#e2e8f0"/>
  <text x="92" y="98" font-family="Inter,Arial" font-size="34" font-weight="700" fill="#0f172a">Rental Manager · Landlord Portal</text>
  <rect x="960" y="72" width="126" height="34" rx="17" fill="#eff6ff" stroke="#bfdbfe"/>
  <text x="990" y="95" font-family="Inter,Arial" font-size="16" fill="#1d4ed8">中文 / EN</text>
  <g transform="translate(60 160)">
    <rect width="255" height="110" rx="22" fill="#fff" stroke="#e2e8f0"/><text x="28" y="42" font-size="17" fill="#64748b" font-family="Inter,Arial">Properties / 房屋</text><text x="28" y="82" font-size="38" font-weight="700" fill="#0f172a" font-family="Inter,Arial">50</text>
  </g>
  <g transform="translate(335 160)">
    <rect width="255" height="110" rx="22" fill="#fff" stroke="#e2e8f0"/><text x="28" y="42" font-size="17" fill="#64748b" font-family="Inter,Arial">Occupied / 已出租</text><text x="28" y="82" font-size="38" font-weight="700" fill="#0f172a" font-family="Inter,Arial">43</text>
  </g>
  <g transform="translate(610 160)">
    <rect width="255" height="110" rx="22" fill="#fff" stroke="#e2e8f0"/><text x="28" y="42" font-size="17" fill="#64748b" font-family="Inter,Arial">Rent Due / 应收</text><text x="28" y="82" font-size="38" font-weight="700" fill="#0f172a" font-family="Inter,Arial">$92k</text>
  </g>
  <g transform="translate(885 160)">
    <rect width="255" height="110" rx="22" fill="#fff" stroke="#e2e8f0"/><text x="28" y="42" font-size="17" fill="#64748b" font-family="Inter,Arial">Late / 逾期</text><text x="28" y="82" font-size="38" font-weight="700" fill="#dc2626" font-family="Inter,Arial">$3.1k</text>
  </g>
  <rect x="60" y="306" width="1080" height="390" rx="24" fill="#fff" stroke="#e2e8f0"/>
  <text x="92" y="354" font-family="Inter,Arial" font-size="26" font-weight="700" fill="#0f172a">Portfolio Map / 房源总览地图</text>
  <text x="92" y="384" font-family="Inter,Arial" font-size="16" fill="#64748b">Leaflet + OpenStreetMap, color-coded property status pins</text>
  <rect x="92" y="414" width="1016" height="240" rx="18" fill="#e0f2fe" stroke="#bae6fd"/>
  <path d="M92 510 C220 450, 300 600, 430 520 S650 430, 760 550 S980 595, 1108 500" fill="none" stroke="#38bdf8" stroke-width="15" opacity=".55"/>
  <path d="M150 635 L310 470 L460 570 L610 455 L780 610 L940 475 L1080 625" fill="none" stroke="#94a3b8" stroke-width="8" opacity=".5"/>
  <circle cx="290" cy="520" r="14" fill="#2563eb" stroke="#fff" stroke-width="5"/><circle cx="610" cy="500" r="14" fill="#16a34a" stroke="#fff" stroke-width="5"/><circle cx="870" cy="565" r="14" fill="#ea580c" stroke="#fff" stroke-width="5"/>
</svg>
