<svg width="1200" height="760" viewBox="0 0 1200 760" xmlns="http://www.w3.org/2000/svg">
  <rect width="1200" height="760" fill="#f8fafc"/>
  <text x="80" y="98" font-family="Inter,Arial" font-size="38" font-weight="700" fill="#0f172a">Property Detail / 房屋详情</text>
  <text x="80" y="132" font-family="Inter,Arial" font-size="18" fill="#64748b">Single property map preview using Google Maps embed/search URL</text>
  <rect x="80" y="176" width="320" height="130" rx="24" fill="#fff" stroke="#e2e8f0"/><text x="112" y="225" font-size="17" fill="#64748b" font-family="Inter,Arial">Status / 状态</text><text x="112" y="265" font-size="30" font-weight="700" fill="#2563eb" font-family="Inter,Arial">Occupied</text>
  <rect x="440" y="176" width="320" height="130" rx="24" fill="#fff" stroke="#e2e8f0"/><text x="472" y="225" font-size="17" fill="#64748b" font-family="Inter,Arial">Monthly Rent / 月租</text><text x="472" y="265" font-size="30" font-weight="700" fill="#0f172a" font-family="Inter,Arial">$2,000</text>
  <rect x="800" y="176" width="320" height="130" rx="24" fill="#fff" stroke="#e2e8f0"/><text x="832" y="225" font-size="17" fill="#64748b" font-family="Inter,Arial">Address / 地址</text><text x="832" y="260" font-size="18" font-weight="600" fill="#0f172a" font-family="Inter,Arial">Orlando, FL</text>
  <rect x="80" y="350" width="1040" height="330" rx="26" fill="#fff" stroke="#e2e8f0"/>
  <text x="112" y="398" font-family="Inter,Arial" font-size="26" font-weight="700" fill="#0f172a">Map / 地图</text>
  <rect x="112" y="426" width="976" height="220" rx="18" fill="#dcfce7" stroke="#bbf7d0"/>
  <path d="M150 555 H1050 M220 450 V630 M430 450 V630 M650 450 V630 M870 450 V630" stroke="#86efac" stroke-width="8" opacity=".8"/>
  <path d="M130 610 C330 520, 420 640, 600 530 S900 470, 1070 560" fill="none" stroke="#60a5fa" stroke-width="13" opacity=".75"/>
  <circle cx="610" cy="535" r="21" fill="#ef4444" stroke="#fff" stroke-width="6"/>
</svg>
