<svg width="1200" height="760" viewBox="0 0 1200 760" xmlns="http://www.w3.org/2000/svg">
  <rect width="1200" height="760" fill="#f8fafc"/>
  <rect x="80" y="64" width="1040" height="120" rx="28" fill="#fff" stroke="#e2e8f0"/>
  <text x="120" y="122" font-family="Inter,Arial" font-size="38" font-weight="700" fill="#0f172a">Tenant Portal / 租客门户</text>
  <text x="120" y="154" font-family="Inter,Arial" font-size="18" fill="#64748b">Lease PDF, rent history, maintenance, notices, renter insurance</text>
  <g transform="translate(80 230)">
    <rect width="500" height="170" rx="24" fill="#fff" stroke="#e2e8f0"/><text x="36" y="58" font-family="Inter,Arial" font-size="25" font-weight="700" fill="#0f172a">Leases / 租约</text><text x="36" y="96" font-family="Inter,Arial" font-size="17" fill="#64748b">Download active lease PDF</text><rect x="36" y="118" width="140" height="34" rx="17" fill="#2563eb"/><text x="60" y="141" font-family="Inter,Arial" font-size="15" fill="#fff">Download PDF</text>
  </g>
  <g transform="translate(620 230)">
    <rect width="500" height="170" rx="24" fill="#fff" stroke="#e2e8f0"/><text x="36" y="58" font-family="Inter,Arial" font-size="25" font-weight="700" fill="#0f172a">Rent Ledger / 租金账本</text><text x="36" y="96" font-family="Inter,Arial" font-size="17" fill="#64748b">Balance and payment history</text><text x="36" y="142" font-family="Inter,Arial" font-size="34" font-weight="700" fill="#16a34a">Paid</text>
  </g>
  <g transform="translate(80 440)">
    <rect width="500" height="170" rx="24" fill="#fff" stroke="#e2e8f0"/><text x="36" y="58" font-family="Inter,Arial" font-size="25" font-weight="700" fill="#0f172a">Maintenance / 维修</text><text x="36" y="96" font-family="Inter,Arial" font-size="17" fill="#64748b">Submit and track repair requests</text><circle cx="420" cy="86" r="38" fill="#ffedd5"/><text x="402" y="98" font-family="Inter,Arial" font-size="36">🛠</text>
  </g>
  <g transform="translate(620 440)">
    <rect width="500" height="170" rx="24" fill="#fff" stroke="#e2e8f0"/><text x="36" y="58" font-family="Inter,Arial" font-size="25" font-weight="700" fill="#0f172a">Insurance / 保险</text><text x="36" y="96" font-family="Inter,Arial" font-size="17" fill="#64748b">Upload renter insurance documents</text><circle cx="420" cy="86" r="38" fill="#dbeafe"/><text x="399" y="98" font-family="Inter,Arial" font-size="34">📄</text>
  </g>
</svg>
