<svg width="1280" height="760" viewBox="0 0 1280 760" xmlns="http://www.w3.org/2000/svg">
  <rect width="1280" height="760" fill="#f8fafc"/>
  <text x="70" y="82" font-family="Inter,Arial" font-size="38" font-weight="800" fill="#0f172a">Tenant Portal</text>
  <text x="70" y="116" font-family="Inter,Arial" font-size="18" fill="#64748b">Lease downloads, rent ledger, maintenance, and document uploads.</text>
  <g transform="translate(70 154)"><rect width="92" height="34" rx="17" fill="#fff" stroke="#cbd5e1"/><text x="28" y="22" font-size="14" font-family="Inter,Arial" fill="#334155">Dashboard</text><rect x="104" width="78" height="34" rx="17" fill="#fff" stroke="#cbd5e1"/><text x="130" y="22" font-size="14" font-family="Inter,Arial" fill="#334155">Leases</text><rect x="194" width="112" height="34" rx="17" fill="#fff" stroke="#cbd5e1"/><text x="218" y="22" font-size="14" font-family="Inter,Arial" fill="#334155">Rent Ledger</text><rect x="318" width="118" height="34" rx="17" fill="#fff" stroke="#cbd5e1"/><text x="340" y="22" font-size="14" font-family="Inter,Arial" fill="#334155">Maintenance</text><rect x="448" width="104" height="34" rx="17" fill="#fff" stroke="#cbd5e1"/><text x="474" y="22" font-size="14" font-family="Inter,Arial" fill="#334155">Documents</text></g>
  <rect x="70" y="230" width="540" height="205" rx="24" fill="#fff" stroke="#e2e8f0"/>
  <text x="102" y="278" font-family="Inter,Arial" font-size="24" font-weight="800" fill="#0f172a">Submit maintenance request</text>
  <rect x="102" y="306" width="220" height="42" rx="12" fill="#fff" stroke="#cbd5e1"/><text x="124" y="333" font-family="Inter,Arial" font-size="14" fill="#64748b">Title</text>
  <rect x="342" y="306" width="130" height="42" rx="12" fill="#fff" stroke="#cbd5e1"/><text x="364" y="333" font-family="Inter,Arial" font-size="14" fill="#64748b">Priority</text>
  <rect x="102" y="366" width="470" height="46" rx="12" fill="#fff" stroke="#cbd5e1"/><text x="124" y="395" font-family="Inter,Arial" font-size="14" fill="#64748b">Description</text>
  <rect x="70" y="465" width="540" height="170" rx="24" fill="#fff" stroke="#e2e8f0"/>
  <text x="102" y="514" font-family="Inter,Arial" font-size="24" font-weight="800" fill="#0f172a">Upload document</text>
  <rect x="102" y="544" width="160" height="42" rx="12" fill="#fff" stroke="#cbd5e1"/><text x="124" y="571" font-family="Inter,Arial" font-size="14" fill="#64748b">Title</text><rect x="282" y="544" width="160" height="42" rx="12" fill="#fff" stroke="#cbd5e1"/><text x="304" y="571" font-family="Inter,Arial" font-size="14" fill="#64748b">Kind</text><rect x="462" y="544" width="110" height="42" rx="12" fill="#1d4ed8"/><text x="517" y="571" text-anchor="middle" font-family="Inter,Arial" font-size="14" font-weight="700" fill="#fff">Upload</text>
  <rect x="670" y="230" width="520" height="405" rx="24" fill="#fff" stroke="#e2e8f0"/>
  <text x="702" y="278" font-family="Inter,Arial" font-size="24" font-weight="800" fill="#0f172a">Lease and rent overview</text>
  <rect x="702" y="312" width="430" height="72" rx="16" fill="#eff6ff" stroke="#bfdbfe"/><text x="728" y="342" font-family="Inter,Arial" font-size="17" font-weight="700" fill="#1e3a8a">Florida Residential Lease</text><text x="728" y="366" font-family="Inter,Arial" font-size="14" fill="#475569">PDF download available</text>
  <rect x="702" y="418" width="430" height="1" fill="#e2e8f0"/><text x="702" y="458" font-family="Inter,Arial" font-size="15" font-weight="700" fill="#334155">Due Date</text><text x="872" y="458" font-family="Inter,Arial" font-size="15" font-weight="700" fill="#334155">Amount</text><text x="1030" y="458" font-family="Inter,Arial" font-size="15" font-weight="700" fill="#334155">Status</text>
  <text x="702" y="500" font-family="Inter,Arial" font-size="15" fill="#334155">2026-05-01</text><text x="872" y="500" font-family="Inter,Arial" font-size="15" fill="#334155">$2,000.00</text><text x="1030" y="500" font-family="Inter,Arial" font-size="15" fill="#16a34a">Paid</text>
</svg>
